<?xml version="1.0" standalone="no"?>
<!DOCTYPE svg PUBLIC "-//W3C//DTD SVG 20010904//EN"
 "http://www.w3.org/TR/2001/REC-SVG-20010904/DTD/svg10.dtd">
<svg version="1.0" xmlns="http://www.w3.org/2000/svg"
 width="259.000000pt" height="259.000000pt" viewBox="0 0 259.000000 259.000000"
 preserveAspectRatio="xMidYMid meet">
<metadata>
Created by potrace 1.11, written by Peter Selinger 2001-2013
</metadata>
<g transform="translate(0.000000,259.000000) scale(0.100000,-0.100000)"
fill="#000000" stroke="none">
<path d="M10 2489 c0 -10 117 -475 161 -636 10 -40 19 -74 19 -77 0 -2 43 -4
95 -4 l95 0 11 42 c6 22 28 102 50 176 48 162 44 146 54 193 4 20 11 37 15 37
4 0 11 -17 15 -37 3 -21 22 -92 42 -158 19 -66 43 -149 52 -185 l17 -65 94 0
94 0 23 80 c13 44 25 89 27 100 2 11 34 137 70 279 36 143 66 261 66 263 0 2
-40 3 -90 3 -85 0 -90 -1 -94 -22 -3 -13 -12 -52 -20 -88 -29 -126 -65 -306
-72 -353 -7 -52 -12 -55 -20 -11 -11 59 -26 121 -46 189 -11 39 -21 75 -22 80
-1 6 -15 54 -30 108 l-29 97 -81 0 -82 0 -27 -107 c-15 -60 -39 -148 -52 -198
-14 -49 -27 -106 -30 -125 -14 -99 -18 -98 -36 5 -9 55 -32 163 -49 240 -39
173 -38 168 -39 178 -1 12 -181 9 -181 -4z"/>
<path d="M1058 2488 c-2 -7 -4 -170 -4 -363 l1 -350 283 -1 c255 -2 282 0 283
15 4 45 5 107 1 117 -2 8 -58 12 -190 11 l-187 -1 -5 29 c-3 16 -3 54 0 84 l5
56 140 1 c77 1 150 2 163 3 22 1 23 4 20 69 l-3 67 -158 1 c-86 1 -160 4 -163
7 -7 7 -7 104 0 115 3 5 82 8 175 8 106 -1 172 3 174 9 3 9 2 99 -2 125 -2 16
-528 13 -533 -2z"/>
<path d="M821 1673 c-166 -44 -265 -193 -257 -387 4 -99 24 -165 71 -228 66
-90 159 -137 276 -139 288 -5 456 278 335 564 -64 153 -249 236 -425 190z
m178 -161 c110 -54 141 -275 54 -378 -46 -55 -127 -75 -190 -49 -83 35 -116
95 -117 210 -1 87 5 114 30 154 26 40 51 61 91 75 45 15 84 12 132 -12z"/>
<path d="M81 1655 c-5 -8 -7 -664 -2 -710 1 -9 139 -10 423 -6 l36 1 4 75 c3
69 1 75 -17 76 -11 0 -75 1 -142 1 l-123 0 0 284 c0 277 0 284 -20 285 -96 5
-153 2 -159 -6z"/>
<path d="M1298 1662 c-13 -3 -12 -14 12 -81 16 -43 49 -138 73 -212 76 -223
146 -421 151 -426 5 -5 77 -6 158 -4 29 1 21 -16 103 221 135 389 175 504 175
504 0 1 -44 1 -97 0 l-97 -1 -34 -114 c-18 -63 -40 -139 -49 -169 -9 -30 -22
-74 -29 -97 -7 -23 -15 -53 -18 -67 -10 -55 -21 -58 -35 -8 -8 26 -33 112 -56
192 -24 80 -50 171 -59 203 -9 31 -20 57 -24 58 -23 3 -161 4 -174 1z"/>
<path d="M2021 1660 c-4 -3 -8 -166 -8 -362 l0 -358 56 0 c351 -3 505 0 511 9
5 9 5 57 1 126 -1 6 -68 10 -183 9 -101 -1 -188 2 -193 6 -6 5 -10 44 -9 86
l0 78 166 0 165 0 1 68 c1 57 -2 68 -16 69 -9 0 -84 2 -167 2 l-149 2 -1 60 0
60 178 3 177 2 0 73 0 72 -261 0 c-143 0 -264 -2 -268 -5z"/>
<path d="M75 468 l0 -363 91 -3 91 -3 -1 363 -1 363 -90 3 -91 3 1 -363z"/>
<path d="M310 757 l0 -73 93 0 92 1 2 -270 c1 -148 2 -280 2 -293 1 -22 3 -23
93 -20 l92 3 0 290 1 290 80 1 c44 1 86 2 93 3 8 1 12 22 12 71 l0 70 -280 0
-280 0 0 -73z"/>
<path d="M859 273 c-1 -13 -1 -137 0 -155 1 -16 12 -18 81 -18 69 0 80 2 81
18 1 19 1 131 0 150 -1 13 -160 18 -162 5z"/>
</g>
</svg>
